<?xml version="1.0" encoding="utf-8"?>
<!-- Svg Vector Icons : http://www.sfont.cn -->
<!DOCTYPE svg PUBLIC "-//W3C//DTD SVG 1.1//EN" "http://www.w3.org/Graphics/SVG/1.1/DTD/svg11.dtd">
<svg version="1.1" xmlns="http://www.w3.org/2000/svg" xmlns:xlink="http://www.w3.org/1999/xlink" x="0px" y="0px" viewBox="0 0 1000 1000" enable-background="new 0 0 1000 1000" xml:space="preserve">
<metadata> Svg Vector Icons : http://www.sfont.cn </metadata>
<g><path d="M500,972.4c-66.1,0-130.3-12.5-190.7-37.1c-58.3-23.8-110.7-57.8-155.7-101.2c-45-43.4-80.3-93.9-105-150.2C23,625.7,10,563.8,10,500c0-88.1,25.3-174.1,73.2-248.6l5.7,3.6C41.7,328.5,16.7,413.2,16.7,500c0,256.8,216.8,465.7,483.3,465.7c266.5,0,483.3-208.9,483.3-465.7c0-256.8-216.8-465.7-483.3-465.7c-85.2,0-168.9,21.6-242.1,62.6l-3.3-5.9C328.8,49.5,413.7,27.6,500,27.6c66.1,0,130.3,12.5,190.7,37.1c58.3,23.8,110.8,57.8,155.8,101.2c45,43.4,80.3,93.9,105,150.2C977,374.3,990,436.2,990,500c0,63.8-13,125.7-38.5,183.9c-24.7,56.3-60,106.8-105,150.2c-45,43.4-97.4,77.4-155.8,101.2C630.3,959.9,566.1,972.4,500,972.4z"/><path d="M367.6,722.4V423.8h6.7v287.7l359.4-182.6L369.1,280l3.8-5.6L747,529.7L367.6,722.4z"/></g>
</svg>
